<?xml version="1.0" encoding="UTF-8"?>
<svg version="1.1" xmlns="http://www.w3.org/2000/svg" width="150" height="50">
<path d="M0 0 C2.375 0.375 2.375 0.375 5 1 C6.32 1 7.64 1 9 1 C10.75 2.375 10.75 2.375 12 4 C12 4.66 12 5.32 12 6 C12.928125 6.37125 12.928125 6.37125 13.875 6.75 C16.35068687 8.20628639 16.95125002 9.37812506 18 12 C16.71034824 13.37562854 15.37310707 14.70766393 14 16 C13.34 16 12.68 16 12 16 C11.7525 16.61875 11.505 17.2375 11.25 17.875 C9.7557016 20.41530728 8.75218149 21.02864183 6 22 C2.23085596 22 0.99288991 21.99525994 -2 20 C-3.25 17.875 -3.25 17.875 -4 16 C-4.33 16 -4.66 16 -5 16 C-6.6825613 14.68678142 -8.34997172 13.35386936 -10 12 C-8.63016497 8.83884224 -8.0109362 8.0072908 -5 6 C-4.67 6 -4.34 6 -4 6 C-3.71125 5.38125 -3.4225 4.7625 -3.125 4.125 C-2 2 -2 2 0 0 Z M-6 10 C-5 12 -5 12 -5 12 Z M0 10 C1 12 1 12 1 12 Z " fill="#040707" transform="translate(25,14)"/>
<path d="M0 0 C0.928125 0.20625 1.85625 0.4125 2.8125 0.625 C4.96967092 5.89808448 4.96967092 5.89808448 4.3125 8.9375 C2.8125 10.625 2.8125 10.625 -0.0625 11.625 C-3.1875 11.625 -3.1875 11.625 -5.625 10.0625 C-7.1875 7.625 -7.1875 7.625 -7.125 4.5 C-5.76628785 0.33328275 -4.33243034 -0.50969769 0 0 Z M-2.1875 2.625 C-2.5175 4.275 -2.8475 5.925 -3.1875 7.625 C-2.8575 6.635 -2.5275 5.645 -2.1875 4.625 C-1.1975 4.295 -0.2075 3.965 0.8125 3.625 C-0.1775 3.295 -1.1675 2.965 -2.1875 2.625 Z " fill="#040707" transform="translate(106.1875,19.375)"/>
<path d="M0 0 C0 0.99 0 1.98 0 3 C-0.66 3 -1.32 3 -2 3 C-3.01540112 7.10223585 -3.01540112 7.10223585 -2 11 C-6.875 10.125 -6.875 10.125 -8 9 C-8.33 9.66 -8.66 10.32 -9 11 C-9.99 11 -10.98 11 -12 11 C-12 7.7 -12 4.4 -12 1 C-3.375 0 -3.375 0 0 0 Z M-9 3 C-9 3.66 -9 4.32 -9 5 C-8.01 5 -7.02 5 -6 5 C-6 4.34 -6 3.68 -6 3 C-6.99 3 -7.98 3 -9 3 Z " fill="#040707" transform="translate(135,19)"/>
<path d="M0 0 C0.763125 0.20625 1.52625 0.4125 2.3125 0.625 C3.5932202 4.46716059 3.13519275 6.71720944 2.3125 10.625 C0 11.25 0 11.25 -2.6875 11.625 C-5.6875 9.625 -5.6875 9.625 -6.0859375 7.75 C-6.07820313 7.04875 -6.07046875 6.3475 -6.0625 5.625 C-6.07023437 4.92375 -6.07796875 4.2225 -6.0859375 3.5 C-5.34153908 -0.0030514 -3.23265019 -0.45106747 0 0 Z " fill="#040707" transform="translate(74.6875,19.375)"/>
<path d="M0 0 C2.64 0 5.28 0 8 0 C8.74010154 3.42296964 9 6.50130105 9 10 C8.2575 9.814375 7.515 9.62875 6.75 9.4375 C3.77159084 8.77947289 3.77159084 8.77947289 0 10 C0 6.7 0 3.4 0 0 Z M3 2 C3 2.66 3 3.32 3 4 C3.99 3.67 4.98 3.34 6 3 C5.01 2.67 4.02 2.34 3 2 Z " fill="#040707" transform="translate(47,20)"/>
<path d="M0 0 C1.953125 0.15234375 1.953125 0.15234375 4 1 C5.046875 3.06640625 5.046875 3.06640625 5.75 5.5625 C5.99234375 6.38878906 6.2346875 7.21507812 6.484375 8.06640625 C6.65453125 8.70449219 6.8246875 9.34257812 7 10 C5.39125 9.7215625 5.39125 9.7215625 3.75 9.4375 C0.48053594 9.05606253 -0.99327978 9.10197515 -4 10 C-3.52449439 8.51965236 -3.04448784 7.04074979 -2.5625 5.5625 C-2.29566406 4.73878906 -2.02882813 3.91507813 -1.75390625 3.06640625 C-1 1 -1 1 0 0 Z " fill="#040707" transform="translate(115,20)"/>
<path d="M0 0 C1.953125 0.15234375 1.953125 0.15234375 4 1 C5.046875 3.06640625 5.046875 3.06640625 5.75 5.5625 C5.99234375 6.38878906 6.2346875 7.21507812 6.484375 8.06640625 C6.65453125 8.70449219 6.8246875 9.34257812 7 10 C5.39125 9.7215625 5.39125 9.7215625 3.75 9.4375 C0.48053594 9.05606253 -0.99327978 9.10197515 -4 10 C-3.52449439 8.51965236 -3.04448784 7.04074979 -2.5625 5.5625 C-2.29566406 4.73878906 -2.02882812 3.91507813 -1.75390625 3.06640625 C-1 1 -1 1 0 0 Z M1 4 C2 6 2 6 2 6 Z " fill="#040707" transform="translate(61,20)"/>
<path d="M0 0 C2.64 0 5.28 0 8 0 C8 0.66 8 1.32 8 2 C6.35 2 4.7 2 3 2 C3 2.66 3 3.32 3 4 C4.65 4 6.3 4 8 4 C8 4.66 8 5.32 8 6 C6.35 6 4.7 6 3 6 C3 6.66 3 7.32 3 8 C4.65 8 6.3 8 8 8 C8 8.66 8 9.32 8 10 C5.36 10 2.72 10 0 10 C0 6.7 0 3.4 0 0 Z " fill="#040707" transform="translate(90,20)"/>
<path d="M0 0 C2.97 0 5.94 0 9 0 C9 0.66 9 1.32 9 2 C8.01 2 7.02 2 6 2 C6 4.64 6 7.28 6 10 C5.01 10 4.02 10 3 10 C3 7.36 3 4.72 3 2 C2.01 2 1.02 2 0 2 C0 1.34 0 0.68 0 0 Z " fill="#040707" transform="translate(79,20)"/>
</svg>
